<?xml version="1.0" encoding="utf-8"?>
<!-- Generator: Adobe Illustrator 19.0.0, SVG Export Plug-In . SVG Version: 6.00 Build 0)  -->
<svg version="1.1" id="Layer_1" xmlns="http://www.w3.org/2000/svg" xmlns:xlink="http://www.w3.org/1999/xlink" x="0px" y="0px"
	 viewBox="0 0 100 30" style="enable-background:new 0 0 100 30;" xml:space="preserve">
<style type="text/css">
	.st0{fill:url(#XMLID_104_);}
	.st1{fill:url(#XMLID_105_);}
	.st2{fill:url(#XMLID_106_);}
	.st3{fill:url(#XMLID_107_);}
	.st4{opacity:0.57;fill:url(#XMLID_108_);}
	.st5{fill:url(#XMLID_109_);}
	.st6{fill:url(#XMLID_110_);}
	.st7{fill:url(#XMLID_111_);}
	.st8{fill:url(#XMLID_112_);}
	.st9{fill:url(#XMLID_113_);}
	.st10{fill:url(#XMLID_114_);}
	.st11{fill:url(#XMLID_115_);}
	.st12{fill:url(#XMLID_116_);}
	.st13{fill:url(#XMLID_117_);}
	.st14{fill:url(#XMLID_118_);}
	.st15{fill:url(#XMLID_119_);}
	.st16{fill:url(#XMLID_120_);}
	.st17{fill:url(#XMLID_121_);}
	.st18{fill:url(#XMLID_122_);}
	.st19{fill:url(#XMLID_123_);}
	.st20{fill:url(#XMLID_124_);}
	.st21{fill:url(#XMLID_125_);}
	.st22{fill:url(#XMLID_126_);}
	.st23{fill:url(#XMLID_127_);}
	.st24{fill:url(#XMLID_128_);}
	.st25{fill:url(#XMLID_129_);}
	.st26{fill:url(#XMLID_130_);}
	.st27{fill:url(#XMLID_131_);}
	.st28{fill:url(#XMLID_132_);}
	.st29{fill:url(#XMLID_133_);}
	.st30{fill:url(#XMLID_134_);}
	.st31{fill:url(#XMLID_135_);}
	.st32{fill:url(#XMLID_136_);}
	.st33{fill:#F4F4F4;}
	.st34{fill:url(#XMLID_137_);}
	.st35{fill:url(#XMLID_138_);}
	.st36{fill:url(#XMLID_139_);}
	.st37{fill:url(#XMLID_140_);}
	.st38{fill:url(#XMLID_141_);}
	.st39{fill:#FFFFFF;}
	.st40{fill:url(#XMLID_142_);}
	.st41{fill:#B7B6B6;}
	.st42{fill:url(#XMLID_143_);}
</style>
<g id="XMLID_46_">
	<g id="XMLID_47_">
		<g id="XMLID_48_">
			<g id="XMLID_49_">
				<g id="XMLID_50_">
					
						<linearGradient id="XMLID_104_" gradientUnits="userSpaceOnUse" x1="35.8732" y1="19.6939" x2="39.2748" y2="7.2213" gradientTransform="matrix(0.9965 -8.400000e-002 8.400000e-002 0.9965 11.8999 2.7423)">
						<stop  offset="0" style="stop-color:#DBDBDB"/>
						<stop  offset="1" style="stop-color:#F4F4F4"/>
					</linearGradient>
					<path id="XMLID_44_" class="st0" d="M64.5,17c0,0,14.6-4,17.7-5.4c3.1-1.3,5.5-3.6,5.5-4.3c0-0.7-1-1-1.8-1.2
						C85,6,84.1,6,84,5.9c-0.1,0-0.2-0.1-0.3-0.1c-0.1-0.1-0.9-0.6-2.4-0.8c-1.4-0.2-3.5-0.1-5.4,0.2s-6.2,1.6-8.8,2.2
						c-2.6,0.6-10.1,2.8-11.3,3.1c-1.2,0.3-14.4,4.1-14.6,4.2c-0.2,0.1-0.9,0-2.2,0.1c-1.3,0.1-4.3-0.1-5.3-0.1
						c-1-0.1-2-0.4-2.5-0.8c-0.5-0.3-9.9-6.5-10.6-7c-0.7-0.5-1.4-1-1.6-1.1c-0.2-0.1-0.6-0.1-1.3,0c-0.7,0.1-2.2,0.7-2.2,0.7
						s2,3.8,3,5.3s4.9,8.4,4.9,8.4s-1.2,0.4-1.4,0.5c-0.2,0.1-0.2,0.1-0.2,0.1s-1.1,1-1.1,1.2c0,0.2,1.1,0.7,1.3,0.9
						s0.3,0.5,0.3,0.5s6.2,0.3,8.4,0.3c2.3,0,8.7-0.3,11.8-0.9c3.1-0.6,8.1-1.9,12.6-3.2C59.7,18.4,63,17.5,64.5,17z"/>
					
						<linearGradient id="XMLID_105_" gradientUnits="userSpaceOnUse" x1="7.831" y1="4.7691" x2="8.3097" y2="8.1637" gradientTransform="matrix(0.9965 -8.400000e-002 8.400000e-002 0.9965 11.8999 2.7423)">
						<stop  offset="0" style="stop-color:#FFFFFF"/>
						<stop  offset="1" style="stop-color:#FFFFFF;stop-opacity:0"/>
					</linearGradient>
					<path id="XMLID_43_" class="st1" d="M16.1,6.8C17.5,6.4,18.5,6,19,6.4c0.6,0.3,5.9,4,5.9,4s-4.7,2.9-5.8,1.4
						C18.1,10.4,16.1,6.8,16.1,6.8z"/>
					
						<linearGradient id="XMLID_106_" gradientUnits="userSpaceOnUse" x1="67.5383" y1="9.286" x2="71.4055" y2="9.286" gradientTransform="matrix(0.9965 -8.400000e-002 8.400000e-002 0.9965 11.8999 2.7423)">
						<stop  offset="0" style="stop-color:#959595"/>
						<stop  offset="1" style="stop-color:#CFCECE"/>
					</linearGradient>
					<path id="XMLID_42_" class="st2" d="M80.1,6.7c0.2,0.4,1.2,0.4,1.8,0.2c0.6-0.2,0.8-0.6,1.2-0.8c0.2-0.1,0.5-0.2,0.8-0.2
						c0,0-0.1,0-0.1-0.1c-0.1,0-0.5-0.3-1.1-0.5L80,6.1C80,6.1,79.9,6.3,80.1,6.7z"/>
					
						<linearGradient id="XMLID_107_" gradientUnits="userSpaceOnUse" x1="42.3229" y1="11.5304" x2="42.5135" y2="12.5126" gradientTransform="matrix(0.9965 -8.400000e-002 8.400000e-002 0.9965 11.8999 2.7423)">
						<stop  offset="0" style="stop-color:#959595"/>
						<stop  offset="1" style="stop-color:#CFCECE;stop-opacity:0"/>
					</linearGradient>
					<path id="XMLID_41_" class="st3" d="M52.2,12.9c8.5-2.3,21.9-6.3,26.4-7.6C79,5.1,79.3,5,79.5,5c-1.2,0-2.5,0.1-3.7,0.3
						c-1.9,0.3-6.2,1.6-8.8,2.2c-2.6,0.6-10.1,2.8-11.3,3.1c-1.2,0.3-14.4,4.1-14.6,4.2c-0.1,0.1-0.7,0.1-1.6,0.1
						c-4,1.5-7.6,2.7-8.6,3.2C33.4,18.2,41.8,15.6,52.2,12.9z"/>
					
						<linearGradient id="XMLID_108_" gradientUnits="userSpaceOnUse" x1="12.191" y1="20.4565" x2="12.5504" y2="22.8408" gradientTransform="matrix(0.9965 -8.400000e-002 8.400000e-002 0.9965 11.8999 2.7423)">
						<stop  offset="0" style="stop-color:#878787"/>
						<stop  offset="1" style="stop-color:#B7B6B6;stop-opacity:0"/>
					</linearGradient>
					<path id="XMLID_40_" class="st4" d="M29.2,21l-5.7,1.5c0,0-0.7,0.6-1.1,1.2c0.6,0,2.6,0.1,4.5,0.2C28,22.9,29.2,21.7,29.2,21z"
						/>
					<g id="XMLID_63_">
						
							<linearGradient id="XMLID_109_" gradientUnits="userSpaceOnUse" x1="60.404" y1="12.0106" x2="60.404" y2="11.3258" gradientTransform="matrix(0.9965 -8.400000e-002 8.400000e-002 0.9965 11.8999 2.7423)">
							<stop  offset="0" style="stop-color:#94D4F4"/>
							<stop  offset="1" style="stop-color:#193059"/>
						</linearGradient>
						<path id="XMLID_24_" class="st5" d="M73.2,9.6L73.2,9.6c-0.1,0-0.3,0-0.3-0.2l-0.1-0.2c0-0.1,0-0.3,0.2-0.3v0
							c0.1,0,0.3,0,0.3,0.2l0.1,0.2C73.4,9.4,73.3,9.6,73.2,9.6z"/>
						
							<linearGradient id="XMLID_110_" gradientUnits="userSpaceOnUse" x1="59.4869" y1="12.195" x2="59.4869" y2="11.5102" gradientTransform="matrix(0.9965 -8.400000e-002 8.400000e-002 0.9965 11.8999 2.7423)">
							<stop  offset="0" style="stop-color:#94D4F4"/>
							<stop  offset="1" style="stop-color:#193059"/>
						</linearGradient>
						<path id="XMLID_39_" class="st6" d="M72.3,9.9L72.3,9.9c-0.1,0-0.3,0-0.3-0.2l-0.1-0.2c0-0.1,0-0.3,0.2-0.3l0,0
							c0.1,0,0.3,0,0.3,0.2l0.1,0.2C72.5,9.7,72.4,9.8,72.3,9.9z"/>
						
							<linearGradient id="XMLID_111_" gradientUnits="userSpaceOnUse" x1="58.5698" y1="12.3794" x2="58.5698" y2="11.6946" gradientTransform="matrix(0.9965 -8.400000e-002 8.400000e-002 0.9965 11.8999 2.7423)">
							<stop  offset="0" style="stop-color:#94D4F4"/>
							<stop  offset="1" style="stop-color:#193059"/>
						</linearGradient>
						<path id="XMLID_23_" class="st7" d="M71.4,10.1L71.4,10.1c-0.1,0-0.3,0-0.3-0.2L71,9.8c0-0.1,0-0.3,0.2-0.3l0,0
							c0.1,0,0.3,0,0.3,0.2l0.1,0.2C71.6,10,71.5,10.1,71.4,10.1z"/>
						
							<linearGradient id="XMLID_112_" gradientUnits="userSpaceOnUse" x1="57.6527" y1="12.5638" x2="57.6527" y2="11.879" gradientTransform="matrix(0.9965 -8.400000e-002 8.400000e-002 0.9965 11.8999 2.7423)">
							<stop  offset="0" style="stop-color:#94D4F4"/>
							<stop  offset="1" style="stop-color:#193059"/>
						</linearGradient>
						<path id="XMLID_22_" class="st8" d="M70.5,10.4L70.5,10.4c-0.1,0-0.3,0-0.3-0.2l-0.1-0.2c0-0.1,0-0.3,0.2-0.3v0
							c0.1,0,0.3,0,0.3,0.2l0.1,0.2C70.7,10.2,70.6,10.4,70.5,10.4z"/>
						
							<linearGradient id="XMLID_113_" gradientUnits="userSpaceOnUse" x1="56.7356" y1="12.7482" x2="56.7356" y2="12.0634" gradientTransform="matrix(0.9965 -8.400000e-002 8.400000e-002 0.9965 11.8999 2.7423)">
							<stop  offset="0" style="stop-color:#94D4F4"/>
							<stop  offset="1" style="stop-color:#193059"/>
						</linearGradient>
						<path id="XMLID_21_" class="st9" d="M69.6,10.7L69.6,10.7c-0.1,0-0.3,0-0.3-0.2l-0.1-0.2c0-0.1,0-0.3,0.2-0.3l0,0
							c0.1,0,0.3,0,0.3,0.2l0.1,0.2C69.8,10.5,69.7,10.6,69.6,10.7z"/>
						
							<linearGradient id="XMLID_114_" gradientUnits="userSpaceOnUse" x1="55.8186" y1="12.9326" x2="55.8186" y2="12.2478" gradientTransform="matrix(0.9965 -8.400000e-002 8.400000e-002 0.9965 11.8999 2.7423)">
							<stop  offset="0" style="stop-color:#94D4F4"/>
							<stop  offset="1" style="stop-color:#193059"/>
						</linearGradient>
						<path id="XMLID_20_" class="st10" d="M68.7,10.9L68.7,10.9c-0.1,0-0.3,0-0.3-0.2l-0.1-0.2c0-0.1,0-0.3,0.2-0.3l0,0
							c0.1,0,0.3,0,0.3,0.2l0.1,0.2C68.9,10.7,68.8,10.9,68.7,10.9z"/>
						
							<linearGradient id="XMLID_115_" gradientUnits="userSpaceOnUse" x1="54.9015" y1="13.117" x2="54.9015" y2="12.4322" gradientTransform="matrix(0.9965 -8.400000e-002 8.400000e-002 0.9965 11.8999 2.7423)">
							<stop  offset="0" style="stop-color:#94D4F4"/>
							<stop  offset="1" style="stop-color:#193059"/>
						</linearGradient>
						<path id="XMLID_19_" class="st11" d="M67.8,11.2L67.8,11.2c-0.1,0-0.3,0-0.3-0.2l-0.1-0.2c0-0.1,0-0.3,0.2-0.3l0,0
							c0.1,0,0.3,0,0.3,0.2l0.1,0.2C68,11,67.9,11.1,67.8,11.2z"/>
						
							<linearGradient id="XMLID_116_" gradientUnits="userSpaceOnUse" x1="53.9844" y1="13.3014" x2="53.9844" y2="12.6166" gradientTransform="matrix(0.9965 -8.400000e-002 8.400000e-002 0.9965 11.8999 2.7423)">
							<stop  offset="0" style="stop-color:#94D4F4"/>
							<stop  offset="1" style="stop-color:#193059"/>
						</linearGradient>
						<path id="XMLID_18_" class="st12" d="M66.9,11.4L66.9,11.4c-0.1,0-0.3,0-0.3-0.2l-0.1-0.2c0-0.1,0-0.3,0.2-0.3l0,0
							c0.1,0,0.3,0,0.3,0.2l0.1,0.2C67.1,11.3,67,11.4,66.9,11.4z"/>
						
							<linearGradient id="XMLID_117_" gradientUnits="userSpaceOnUse" x1="53.0673" y1="13.4858" x2="53.0673" y2="12.801" gradientTransform="matrix(0.9965 -8.400000e-002 8.400000e-002 0.9965 11.8999 2.7423)">
							<stop  offset="0" style="stop-color:#94D4F4"/>
							<stop  offset="1" style="stop-color:#193059"/>
						</linearGradient>
						<path id="XMLID_17_" class="st13" d="M66,11.7L66,11.7c-0.1,0-0.3,0-0.3-0.2l-0.1-0.2c0-0.1,0-0.3,0.2-0.3l0,0
							c0.1,0,0.3,0,0.3,0.2l0.1,0.2C66.2,11.5,66.1,11.7,66,11.7z"/>
						
							<linearGradient id="XMLID_118_" gradientUnits="userSpaceOnUse" x1="50.3161" y1="14.039" x2="50.3161" y2="13.3542" gradientTransform="matrix(0.9965 -8.400000e-002 8.400000e-002 0.9965 11.8999 2.7423)">
							<stop  offset="0" style="stop-color:#94D4F4"/>
							<stop  offset="1" style="stop-color:#193059"/>
						</linearGradient>
						<path id="XMLID_16_" class="st14" d="M63.3,12.5L63.3,12.5c-0.1,0-0.3,0-0.3-0.2l-0.1-0.2c0-0.1,0-0.3,0.2-0.3l0,0
							c0.1,0,0.3,0,0.3,0.2l0.1,0.2C63.5,12.3,63.4,12.5,63.3,12.5z"/>
						
							<linearGradient id="XMLID_119_" gradientUnits="userSpaceOnUse" x1="49.399" y1="14.2234" x2="49.399" y2="13.5386" gradientTransform="matrix(0.9965 -8.400000e-002 8.400000e-002 0.9965 11.8999 2.7423)">
							<stop  offset="0" style="stop-color:#94D4F4"/>
							<stop  offset="1" style="stop-color:#193059"/>
						</linearGradient>
						<path id="XMLID_15_" class="st15" d="M62.4,12.8L62.4,12.8c-0.1,0-0.3,0-0.3-0.2L62,12.4c0-0.1,0-0.3,0.2-0.3l0,0
							c0.1,0,0.3,0,0.3,0.2l0.1,0.2C62.6,12.6,62.5,12.7,62.4,12.8z"/>
						
							<linearGradient id="XMLID_120_" gradientUnits="userSpaceOnUse" x1="48.4819" y1="14.4078" x2="48.4819" y2="13.723" gradientTransform="matrix(0.9965 -8.400000e-002 8.400000e-002 0.9965 11.8999 2.7423)">
							<stop  offset="0" style="stop-color:#94D4F4"/>
							<stop  offset="1" style="stop-color:#193059"/>
						</linearGradient>
						<path id="XMLID_38_" class="st16" d="M61.5,13L61.5,13c-0.1,0-0.3,0-0.3-0.2l-0.1-0.2c0-0.1,0-0.3,0.2-0.3h0
							c0.1,0,0.3,0,0.3,0.2l0.1,0.2C61.7,12.8,61.6,13,61.5,13z"/>
						
							<linearGradient id="XMLID_121_" gradientUnits="userSpaceOnUse" x1="47.5648" y1="14.5922" x2="47.5648" y2="13.9074" gradientTransform="matrix(0.9965 -8.400000e-002 8.400000e-002 0.9965 11.8999 2.7423)">
							<stop  offset="0" style="stop-color:#94D4F4"/>
							<stop  offset="1" style="stop-color:#193059"/>
						</linearGradient>
						<path id="XMLID_14_" class="st17" d="M60.6,13.3L60.6,13.3c-0.1,0-0.3,0-0.3-0.2l-0.1-0.2c0-0.1,0-0.3,0.2-0.3l0,0
							c0.1,0,0.3,0,0.3,0.2l0.1,0.2C60.8,13.1,60.7,13.2,60.6,13.3z"/>
						
							<linearGradient id="XMLID_122_" gradientUnits="userSpaceOnUse" x1="46.6477" y1="14.7766" x2="46.6477" y2="14.0918" gradientTransform="matrix(0.9965 -8.400000e-002 8.400000e-002 0.9965 11.8999 2.7423)">
							<stop  offset="0" style="stop-color:#94D4F4"/>
							<stop  offset="1" style="stop-color:#193059"/>
						</linearGradient>
						<path id="XMLID_13_" class="st18" d="M59.7,13.5L59.7,13.5c-0.1,0-0.3,0-0.3-0.2l-0.1-0.2c0-0.1,0-0.3,0.2-0.3l0,0
							c0.1,0,0.3,0,0.3,0.2l0.1,0.2C59.9,13.4,59.8,13.5,59.7,13.5z"/>
						
							<linearGradient id="XMLID_123_" gradientUnits="userSpaceOnUse" x1="45.7306" y1="14.961" x2="45.7306" y2="14.2762" gradientTransform="matrix(0.9965 -8.400000e-002 8.400000e-002 0.9965 11.8999 2.7423)">
							<stop  offset="0" style="stop-color:#94D4F4"/>
							<stop  offset="1" style="stop-color:#193059"/>
						</linearGradient>
						<path id="XMLID_12_" class="st19" d="M58.8,13.8L58.8,13.8c-0.1,0-0.3,0-0.3-0.2l-0.1-0.2c0-0.1,0-0.3,0.2-0.3l0,0
							c0.1,0,0.3,0,0.3,0.2l0.1,0.2C59,13.6,58.9,13.8,58.8,13.8z"/>
						
							<linearGradient id="XMLID_124_" gradientUnits="userSpaceOnUse" x1="44.8136" y1="15.1454" x2="44.8136" y2="14.4607" gradientTransform="matrix(0.9965 -8.400000e-002 8.400000e-002 0.9965 11.8999 2.7423)">
							<stop  offset="0" style="stop-color:#94D4F4"/>
							<stop  offset="1" style="stop-color:#193059"/>
						</linearGradient>
						<path id="XMLID_11_" class="st20" d="M57.9,14.1L57.9,14.1c-0.1,0-0.3,0-0.3-0.2l-0.1-0.2c0-0.1,0-0.3,0.2-0.3v0
							c0.1,0,0.3,0,0.3,0.2l0.1,0.2C58.1,13.9,58,14,57.9,14.1z"/>
						
							<linearGradient id="XMLID_125_" gradientUnits="userSpaceOnUse" x1="43.8965" y1="15.3298" x2="43.8965" y2="14.6451" gradientTransform="matrix(0.9965 -8.400000e-002 8.400000e-002 0.9965 11.8999 2.7423)">
							<stop  offset="0" style="stop-color:#94D4F4"/>
							<stop  offset="1" style="stop-color:#193059"/>
						</linearGradient>
						<path id="XMLID_10_" class="st21" d="M57,14.3L57,14.3c-0.1,0-0.3,0-0.3-0.2L56.6,14c0-0.1,0-0.3,0.2-0.3l0,0
							c0.1,0,0.3,0,0.3,0.2l0.1,0.2C57.2,14.1,57.1,14.3,57,14.3z"/>
						
							<linearGradient id="XMLID_126_" gradientUnits="userSpaceOnUse" x1="42.9794" y1="15.5142" x2="42.9794" y2="14.8294" gradientTransform="matrix(0.9965 -8.400000e-002 8.400000e-002 0.9965 11.8999 2.7423)">
							<stop  offset="0" style="stop-color:#94D4F4"/>
							<stop  offset="1" style="stop-color:#193059"/>
						</linearGradient>
						<path id="XMLID_9_" class="st22" d="M56.1,14.6L56.1,14.6c-0.1,0-0.3,0-0.3-0.2l-0.1-0.2c0-0.1,0-0.3,0.2-0.3l0,0
							c0.1,0,0.3,0,0.3,0.2l0.1,0.2C56.3,14.4,56.2,14.5,56.1,14.6z"/>
						
							<linearGradient id="XMLID_127_" gradientUnits="userSpaceOnUse" x1="42.0623" y1="15.6986" x2="42.0623" y2="15.0138" gradientTransform="matrix(0.9965 -8.400000e-002 8.400000e-002 0.9965 11.8999 2.7423)">
							<stop  offset="0" style="stop-color:#94D4F4"/>
							<stop  offset="1" style="stop-color:#193059"/>
						</linearGradient>
						<path id="XMLID_8_" class="st23" d="M55.2,14.8L55.2,14.8c-0.1,0-0.3,0-0.3-0.2l-0.1-0.2c0-0.1,0-0.3,0.2-0.3l0,0
							c0.1,0,0.3,0,0.3,0.2l0.1,0.2C55.4,14.7,55.3,14.8,55.2,14.8z"/>
						
							<linearGradient id="XMLID_128_" gradientUnits="userSpaceOnUse" x1="41.1452" y1="15.883" x2="41.1452" y2="15.1982" gradientTransform="matrix(0.9965 -8.400000e-002 8.400000e-002 0.9965 11.8999 2.7423)">
							<stop  offset="0" style="stop-color:#94D4F4"/>
							<stop  offset="1" style="stop-color:#193059"/>
						</linearGradient>
						<path id="XMLID_7_" class="st24" d="M54.3,15.1L54.3,15.1c-0.1,0-0.3,0-0.3-0.2l-0.1-0.2c0-0.1,0-0.3,0.2-0.3v0
							c0.1,0,0.3,0,0.3,0.2l0.1,0.2C54.5,14.9,54.4,15.1,54.3,15.1z"/>
						
							<linearGradient id="XMLID_129_" gradientUnits="userSpaceOnUse" x1="39.3111" y1="16.2518" x2="39.3111" y2="15.567" gradientTransform="matrix(0.9965 -8.400000e-002 8.400000e-002 0.9965 11.8999 2.7423)">
							<stop  offset="0" style="stop-color:#94D4F4"/>
							<stop  offset="1" style="stop-color:#193059"/>
						</linearGradient>
						<path id="XMLID_37_" class="st25" d="M52.5,15.6L52.5,15.6c-0.1,0-0.3,0-0.3-0.2l-0.1-0.2c0-0.1,0-0.3,0.2-0.3l0,0
							c0.1,0,0.3,0,0.3,0.2l0.1,0.2C52.7,15.4,52.6,15.6,52.5,15.6z"/>
						
							<linearGradient id="XMLID_130_" gradientUnits="userSpaceOnUse" x1="38.394" y1="16.4362" x2="38.394" y2="15.7515" gradientTransform="matrix(0.9965 -8.400000e-002 8.400000e-002 0.9965 11.8999 2.7423)">
							<stop  offset="0" style="stop-color:#94D4F4"/>
							<stop  offset="1" style="stop-color:#193059"/>
						</linearGradient>
						<path id="XMLID_6_" class="st26" d="M51.6,15.9L51.6,15.9c-0.1,0-0.3,0-0.3-0.2l-0.1-0.2c0-0.1,0-0.3,0.2-0.3l0,0
							c0.1,0,0.3,0,0.3,0.2l0.1,0.2C51.8,15.7,51.7,15.8,51.6,15.9z"/>
						
							<linearGradient id="XMLID_131_" gradientUnits="userSpaceOnUse" x1="37.4769" y1="16.6206" x2="37.4769" y2="15.9359" gradientTransform="matrix(0.9965 -8.400000e-002 8.400000e-002 0.9965 11.8999 2.7423)">
							<stop  offset="0" style="stop-color:#94D4F4"/>
							<stop  offset="1" style="stop-color:#193059"/>
						</linearGradient>
						<path id="XMLID_5_" class="st27" d="M50.7,16.1L50.7,16.1c-0.1,0-0.3,0-0.3-0.2l-0.1-0.2c0-0.1,0-0.3,0.2-0.3l0,0
							c0.1,0,0.3,0,0.3,0.2l0.1,0.2C50.9,16,50.8,16.1,50.7,16.1z"/>
						
							<linearGradient id="XMLID_132_" gradientUnits="userSpaceOnUse" x1="36.5598" y1="16.8051" x2="36.5598" y2="16.1203" gradientTransform="matrix(0.9965 -8.400000e-002 8.400000e-002 0.9965 11.8999 2.7423)">
							<stop  offset="0" style="stop-color:#94D4F4"/>
							<stop  offset="1" style="stop-color:#193059"/>
						</linearGradient>
						<path id="XMLID_4_" class="st28" d="M49.8,16.4L49.8,16.4c-0.1,0-0.3,0-0.3-0.2l-0.1-0.2c0-0.1,0-0.3,0.2-0.3l0,0
							c0.1,0,0.3,0,0.3,0.2l0.1,0.2C50,16.2,50,16.4,49.8,16.4z"/>
						
							<linearGradient id="XMLID_133_" gradientUnits="userSpaceOnUse" x1="35.6427" y1="16.9895" x2="35.6427" y2="16.3047" gradientTransform="matrix(0.9965 -8.400000e-002 8.400000e-002 0.9965 11.8999 2.7423)">
							<stop  offset="0" style="stop-color:#94D4F4"/>
							<stop  offset="1" style="stop-color:#193059"/>
						</linearGradient>
						<path id="XMLID_3_" class="st29" d="M48.9,16.7L48.9,16.7c-0.1,0-0.3,0-0.3-0.2l-0.1-0.2c0-0.1,0-0.3,0.2-0.3h0
							c0.1,0,0.3,0,0.3,0.2l0.1,0.2C49.1,16.5,49.1,16.6,48.9,16.7z"/>
						
							<linearGradient id="XMLID_134_" gradientUnits="userSpaceOnUse" x1="34.7256" y1="17.1738" x2="34.7256" y2="16.489" gradientTransform="matrix(0.9965 -8.400000e-002 8.400000e-002 0.9965 11.8999 2.7423)">
							<stop  offset="0" style="stop-color:#94D4F4"/>
							<stop  offset="1" style="stop-color:#193059"/>
						</linearGradient>
						<path id="XMLID_2_" class="st30" d="M48,16.9L48,16.9c-0.1,0-0.3,0-0.3-0.2l-0.1-0.2c0-0.1,0-0.3,0.2-0.3l0,0
							c0.1,0,0.3,0,0.3,0.2l0.1,0.2C48.2,16.7,48.2,16.9,48,16.9z"/>
						
							<linearGradient id="XMLID_135_" gradientUnits="userSpaceOnUse" x1="33.8086" y1="17.3582" x2="33.8086" y2="16.6734" gradientTransform="matrix(0.9965 -8.400000e-002 8.400000e-002 0.9965 11.8999 2.7423)">
							<stop  offset="0" style="stop-color:#94D4F4"/>
							<stop  offset="1" style="stop-color:#193059"/>
						</linearGradient>
						<path id="XMLID_1_" class="st31" d="M47.1,17.2L47.1,17.2c-0.1,0-0.3,0-0.3-0.2l-0.1-0.2c0-0.1,0-0.3,0.2-0.3l0,0
							c0.1,0,0.3,0,0.3,0.2l0.1,0.2C47.3,17,47.3,17.1,47.1,17.2z"/>
					</g>
					
						<linearGradient id="XMLID_136_" gradientUnits="userSpaceOnUse" x1="27.129" y1="17.7478" x2="15.5939" y2="14.3414" gradientTransform="matrix(0.9965 -8.400000e-002 8.400000e-002 0.9965 11.8999 2.7423)">
						<stop  offset="0" style="stop-color:#CDCECE"/>
						<stop  offset="1" style="stop-color:#D7D6D8"/>
					</linearGradient>
					<path id="XMLID_36_" class="st32" d="M41.1,14.8c0,0-7.6,2.5-11.4,3.8c-3.8,1.2-1.9,0.2,9.7-3.7C39.7,14.9,41.1,14.8,41.1,14.8
						z"/>
					<path id="XMLID_35_" class="st33" d="M29.3,20.8c0,0-8.8,0.1-9.4,0.1c-0.6,0-2.1,0.5-2.3,0.5c0,0,0,0,0,0
						c-0.1,0-0.4,0.3-0.3,0.3c1,0.2,4.5,0.5,5.7,0.6c1.4,0.2,4.6-0.2,5.5-0.7C29.3,21.3,29.5,20.8,29.3,20.8z"/>
					
						<linearGradient id="XMLID_137_" gradientUnits="userSpaceOnUse" x1="12.3598" y1="20.3701" x2="6.978" y2="18.7808" gradientTransform="matrix(0.9965 -8.400000e-002 8.400000e-002 0.9965 11.8999 2.7423)">
						<stop  offset="0" style="stop-color:#CDCECE"/>
						<stop  offset="1" style="stop-color:#D7D6D8"/>
					</linearGradient>
					<path id="XMLID_34_" class="st34" d="M29,21.1c0,0-8.8,0.1-9.4,0.1c-0.6,0-2.3,0.5-2.3,0.5s4,0.8,5.4,1
						c1.4,0.2,4.7-0.4,5.6-0.9C29.3,21.3,29.3,21.1,29,21.1z"/>
					
						<linearGradient id="XMLID_138_" gradientUnits="userSpaceOnUse" x1="67.8746" y1="9.2548" x2="71.3484" y2="9.2548" gradientTransform="matrix(0.9965 -8.400000e-002 8.400000e-002 0.9965 11.8999 2.7423)">
						<stop  offset="0" style="stop-color:#004F7D"/>
						<stop  offset="1" style="stop-color:#C7E7FA"/>
						<stop  offset="1" style="stop-color:#004F7D"/>
					</linearGradient>
					<path id="XMLID_33_" class="st35" d="M80.4,6.6c0.1,0.3,1,0.3,1.5,0.2c0.5-0.1,0.7-0.5,1-0.6c0.2-0.1,0.6-0.2,0.9-0.3
						c0,0-0.1,0-0.1,0c-0.1,0-0.4-0.2-1-0.4l-2.4,0.7C80.3,6.1,80.3,6.3,80.4,6.6z"/>
					
						<linearGradient id="XMLID_139_" gradientUnits="userSpaceOnUse" x1="46.014" y1="19.9976" x2="45.3424" y2="17.1097" gradientTransform="matrix(0.9965 -8.400000e-002 8.400000e-002 0.9965 11.8999 2.7423)">
						<stop  offset="0" style="stop-color:#959595"/>
						<stop  offset="1" style="stop-color:#CFCECE"/>
					</linearGradient>
					<path id="XMLID_32_" class="st36" d="M29.1,23.9c0.6,0,1.1,0,1.6,0c2.3,0,8.7-0.3,11.8-0.9c3.1-0.6,8.1-1.9,12.6-3.2
						c4.6-1.3,7.9-2.2,9.4-2.7c0,0,14.6-4,17.7-5.4c3.1-1.3,5.5-3.6,5.5-4.3c0-0.2,0-0.3-0.1-0.4L29.1,23.9z"/>
					
						<linearGradient id="XMLID_140_" gradientUnits="userSpaceOnUse" x1="39.3926" y1="17.8733" x2="39.868" y2="21.0263" gradientTransform="matrix(0.9965 -8.400000e-002 8.400000e-002 0.9965 11.8999 2.7423)">
						<stop  offset="0" style="stop-color:#878787"/>
						<stop  offset="1" style="stop-color:#B7B6B6;stop-opacity:0"/>
					</linearGradient>
					<path id="XMLID_31_" class="st37" d="M57.2,15.7l-1.5,0.4l-7.3,2.1c-0.3,1.4-0.1,2.6,0.5,3.1c1.3-0.3,2.6-0.7,3.9-1.1
						C55.2,18.5,57.2,15.7,57.2,15.7z"/>
					
						<linearGradient id="XMLID_141_" gradientUnits="userSpaceOnUse" x1="50.6791" y1="17.7262" x2="51.6701" y2="17.7262" gradientTransform="matrix(0.9965 -8.400000e-002 8.400000e-002 0.9965 11.8999 2.7423)">
						<stop  offset="0" style="stop-color:#878787"/>
						<stop  offset="1" style="stop-color:#B7B6B6"/>
					</linearGradient>
					<path id="XMLID_30_" class="st38" d="M64.4,17.3c0,0,0.6-0.9,0.4-1.6c-0.1-0.5-0.9-0.9-1.1-0.9L64.4,17.3z"/>
					<path id="XMLID_29_" class="st39" d="M57.6,15.6c0-0.1-0.3-0.1-0.8-0.1c-0.4,0-15.3,1.5-15.7,1.5c-0.8,0.1-2.6-1.3-2.9-1.5
						c-0.1-0.1-0.2-0.1-0.4,0.1c-0.3,0.1-0.4,0.2-0.4,0.2c0.3,0.3,1.7,1.6,2.1,1.9c0.1,0.1,0.3,0.1,0.5,0.2c2.7,0.4,8.6,0.4,9,0.4
						c0.5,0,0.9-0.1,1.3-0.2c2.3-0.7,4.7-1.5,5.6-1.8C56.8,15.8,57.5,15.6,57.6,15.6z"/>
					
						<linearGradient id="XMLID_142_" gradientUnits="userSpaceOnUse" x1="36.2755" y1="17.3686" x2="24.723" y2="14.8619" gradientTransform="matrix(0.9965 -8.400000e-002 8.400000e-002 0.9965 11.8999 2.7423)">
						<stop  offset="0" style="stop-color:#CDCECE"/>
						<stop  offset="0.573" style="stop-color:#D7D6D8"/>
						<stop  offset="1" style="stop-color:#FFFFFF"/>
					</linearGradient>
					<path id="XMLID_28_" class="st40" d="M57.2,15.7c0-0.1-0.6,0-0.6,0S41.3,17.2,41,17.2c-0.8,0.1-2.6-1.4-2.9-1.5
						c-0.3-0.2-0.7,0.1-0.7,0.1s1.5,1.8,1.9,2.1c0.1,0.1,0.3,0.1,0.5,0.2c2.7,0.4,8.6,0.4,9,0.4c0.5,0,0.9-0.1,1.3-0.2
						c2.3-0.7,4.7-1.6,5.6-1.9C56.7,15.9,57.3,15.8,57.2,15.7z"/>
					<path id="XMLID_27_" class="st41" d="M55.7,17.6c0,0-0.8,0.7-1.1,0.9c-0.1,0.1-0.1,0.1-0.1,0.2c0.1,0.3,0.2,0.7,0.3,0.9
						c0,0.1,0.1,0.2,0.2,0.2c0.2,0,0.7,0.1,1.4,0C56.7,19.4,55.7,17.6,55.7,17.6z"/>
					
						<linearGradient id="XMLID_143_" gradientUnits="userSpaceOnUse" x1="46.1811" y1="16.5476" x2="46.9322" y2="21.0331" gradientTransform="matrix(0.9965 -8.400000e-002 8.400000e-002 0.9965 11.8999 2.7423)">
						<stop  offset="0" style="stop-color:#DBDBDB"/>
						<stop  offset="0.5252" style="stop-color:#F4F4F4"/>
						<stop  offset="1" style="stop-color:#959797"/>
					</linearGradient>
					<path id="XMLID_26_" class="st42" d="M58.8,15.5c-2.1,0.7-2.9,1.3-3.2,2c0,0,0.5,2.2,0.8,2.5c0.3,0.2,1.4,0.3,3.6-0.3
						c1.6-0.5,3.5-1.1,4.3-1.4l-1-4C62.1,14.4,60.7,14.9,58.8,15.5z"/>
					<path id="XMLID_25_" class="st41" d="M64.6,17.7c-0.1-0.4-0.3-1.3-0.8-3.1c-0.1-0.2-0.3-0.3-0.5-0.3c0,0-0.1,0-0.1,0l1,4
						c0,0,0,0,0.1,0C64.6,18.2,64.7,18,64.6,17.7z"/>
				</g>
			</g>
		</g>
	</g>
</g>
</svg>
